<?xml version="1.0" encoding="utf-8"?>
<!-- Generator: Adobe Illustrator 28.0.0, SVG Export Plug-In . SVG Version: 6.00 Build 0)  -->
<svg version="1.1" id="Calque_1" xmlns="http://www.w3.org/2000/svg" xmlns:xlink="http://www.w3.org/1999/xlink" x="0px" y="0px"
	 viewBox="0 0 709.2 765.7" style="enable-background:new 0 0 709.2 765.7;" xml:space="preserve">
<style type="text/css">
	.st0{fill:#F9CFAC;}
	.st1{fill:#FFE4CC;}
	.st2{fill:#FF0860;}
</style>
<g transform="translate(-93.082 -127.06)">
	<g transform="rotate(-30.828 -80.503 171.23)">
		<path class="st0" d="M448.1,770.2L297.9,927.3c-27,27-63.6,42.2-101.8,42.2h-28.3c-72.9,0-132-59.1-132-132
			c0-35.1-9.2-69.6-26.8-100L-36,659.7c-6.9-11.9-5.2-26.5,3.2-36.5c14.1-16.9,41.1-14.9,52.3,4.5c65.3,113.2-10.3-17.9,63.9,110.7
			C32.2,547.5,32.4,553.1,34.2,542.7c0-1,1.3-6.2,3.1-9.8c14.7-30.3,58.7-25.5,67.2,6.3c2.7,10,44.6,166.5,47.2,176.1
			c0-218-0.2-207,0.3-210.4c2.5-18.7,18.8-31.4,33.9-31.4c20.9-1,37.8,15.6,37.8,36l0,212c60.2-209.9,55.2-195.2,59.6-202
			c9.4-14.8,30.5-21.1,47.4-11.6c13.4,6.7,21.9,24,17.4,40.8l-52.4,195.6l0,42.5c0,14.3,17.2,21.4,27.3,11.3
			c48.4-56,44.1-51.2,46.4-53.3c25-23.2,59.1-26.6,70.4-21C457.6,731.5,463,755.2,448.1,770.2L448.1,770.2z"/>
		<path class="st1" d="M454.8,739.5L283.2,917.6c-21.6,19-48.3,31-76.6,34.7c-89.3,11.6-154.8-54.6-154.8-130.8
			c0-35.1-9.2-69.6-26.8-100c-60.6-103-57.1-97-57.7-98.3c7.9-9.4,20.7-13.7,33-10.3c6.9,1.9,10.9,5.1,15.4,9.6
			c34,56.9,67.8,116,67.7,116c8.6,0,14.8-8.1,12.6-16.4C48.2,543.7,50.5,554.8,50.8,547.1c0.3-11.3,6.9-23.2,17.6-29.5
			c4.5-2.6,9.5-4,9.9-4c12.4,3,22.7,12.5,26.3,25.7c4.7,17.6,42.1,157.1,47.2,176.1c0-225.8-0.2-207.4,0.6-212.2
			c1-5.4,3.2-10.5,5.9-14.1c3.1-4.5,7.3-7.8,7.4-7.8c24.4-18.8,58.2-1,58.2,28.3l0,212c58.4-203.7,55.3-192.9,55.8-194.4
			c8.5-24.3,41.1-32.8,60.4-12c1.2,1.4,5.5-17-60.2,232.2v42.5c0,12.2,13.7,24,29.4,17.9c10.6-4.1,16.5-12.7,24.7-22.1
			c36.6-42.3,32.2-37.3,34.7-40c10.6-10.3,24.5-18.3,40.4-22c6.7-1.5,17.3-2.9,23.8-1.9c8.8,1.4,16.1,6.7,20.2,13.8
			C454.1,737.5,454.7,739.4,454.8,739.5L454.8,739.5z"/>
		<path class="st0" d="M183.7,928.5c-4.4,0-8-3.6-8-8c0-63.9,47.7-118.4,110.9-126.9c4.4-0.6,8.4,2.5,9,6.9c0.6,4.4-2.5,8.4-6.9,9
			c-55.3,7.4-97.1,55.1-97.1,111C191.7,924.9,188.1,928.5,183.7,928.5L183.7,928.5z"/>
	</g>
	<g transform="matrix(.59995 .014904 -.014892 .60044 210.31 203.06)">
		<path class="st2" d="M-174.7,835.1c6.5,93.4,49.9,177,122.3,235.6c72.3,58.6,163.2,83.6,255.9,70.6c10.6-1.5,18-11.3,16.5-21.9
			c-1.5-10.6-11.3-18-21.9-16.5c-81.9,11.5-162.1-10.6-226-62.3c-63.9-51.7-102.2-125.6-108-208.1c-0.4-5.6-3.1-10.5-7.2-13.7
			c-3.7-3-8.5-4.6-13.6-4.3C-167.3,815.1-175.4,824.4-174.7,835.1L-174.7,835.1z"/>
		<path class="st2" d="M-68.8,817.6c6.7,66.6,37.8,125.4,87.3,165.5c49.6,40.1,113.5,58.2,180.1,51c10.7-1.2,18.4-10.7,17.2-21.4
			s-10.7-18.4-21.4-17.2c-56.2,6.1-109.9-9-151.4-42.6c-41.4-33.6-67.4-83-73.1-139.2c-0.5-5.4-3.2-10-7.1-13.1
			c-3.8-3.1-8.9-4.8-14.2-4.2C-62.1,797.4-69.9,806.9-68.8,817.6L-68.8,817.6z"/>
	</g>
	<g transform="matrix(-.59998 -.013681 .013668 -.60047 779.85 816.46)">
		<path class="st2" d="M-18.4,831.3c6.5,93.4,49.9,177,122.3,235.6c72.3,58.6,163.2,83.6,255.9,70.6c10.6-1.5,18-11.3,16.5-21.9
			c-1.5-10.6-11.3-18-21.9-16.5c-81.9,11.5-162.1-10.6-226-62.3C64.4,985,26.1,911.1,20.3,828.7c-0.4-5.6-3.1-10.5-7.2-13.7
			c-3.7-3-8.5-4.6-13.6-4.3C-11.1,811.4-19.2,820.7-18.4,831.3L-18.4,831.3z"/>
		<path class="st2" d="M87.4,813.9c6.7,66.6,37.8,125.4,87.3,165.5c49.6,40.1,113.5,58.2,180.1,51c10.7-1.2,18.4-10.7,17.2-21.4
			s-10.7-18.4-21.4-17.2c-56.2,6.1-109.9-9-151.4-42.6c-41.4-33.6-67.4-83-73.1-139.2c-0.5-5.4-3.2-10-7.1-13.1
			c-3.8-3.1-8.9-4.8-14.2-4.2C94.1,793.7,86.4,803.2,87.4,813.9L87.4,813.9z"/>
	</g>
</g>
</svg>
