<?xml version="1.0" encoding="utf-8"?>
<!-- Generator: Adobe Illustrator 28.0.0, SVG Export Plug-In . SVG Version: 6.00 Build 0)  -->
<svg version="1.1" id="Calque_1" xmlns="http://www.w3.org/2000/svg" xmlns:xlink="http://www.w3.org/1999/xlink" x="0px" y="0px"
	 viewBox="0 0 709.2 765.7" style="enable-background:new 0 0 709.2 765.7;" xml:space="preserve">
<style type="text/css">
	.st0{fill:#F9CFAC;}
	.st1{fill:#FFE4CC;}
	.st2{fill:#FF0860;}
</style>
<g transform="translate(-93.082 -127.06)">
	<g transform="matrix(.59995 .014904 -.014892 .60044 210.31 203.06)">
		<path class="st2" d="M-174.7,835.1c6.5,93.4,49.9,177,122.3,235.6c72.3,58.6,163.2,83.6,255.9,70.6c10.6-1.5,18-11.3,16.5-21.9
			c-1.5-10.6-11.3-18-21.9-16.5c-81.9,11.5-162.1-10.6-226-62.3c-63.9-51.7-102.2-125.6-108-208.1c-0.4-5.6-3.1-10.5-7.2-13.7
			c-3.7-3-8.5-4.6-13.6-4.3C-167.3,815.1-175.4,824.4-174.7,835.1L-174.7,835.1z"/>
		<path class="st2" d="M-68.8,817.6c6.7,66.6,37.8,125.4,87.3,165.5c49.6,40.1,113.5,58.2,180.1,51c10.7-1.2,18.4-10.7,17.2-21.4
			s-10.7-18.4-21.4-17.2c-56.2,6.1-109.9-9-151.4-42.6c-41.4-33.6-67.4-83-73.1-139.2c-0.5-5.4-3.2-10-7.1-13.1
			c-3.8-3.1-8.9-4.8-14.2-4.2C-62.1,797.4-69.9,806.9-68.8,817.6L-68.8,817.6z"/>
	</g>
	<g transform="matrix(-.59998 -.013681 .013668 -.60047 779.85 816.46)">
		<path class="st2" d="M-18.4,831.3c6.5,93.4,49.9,177,122.3,235.6c72.3,58.6,163.2,83.6,255.9,70.6c10.6-1.5,18-11.3,16.5-21.9
			c-1.5-10.6-11.3-18-21.9-16.5c-81.9,11.5-162.1-10.6-226-62.3C64.4,985,26.1,911.1,20.3,828.7c-0.4-5.6-3.1-10.5-7.2-13.7
			c-3.7-3-8.5-4.6-13.6-4.3C-11.1,811.4-19.2,820.7-18.4,831.3L-18.4,831.3z"/>
		<path class="st2" d="M87.4,813.9c6.7,66.6,37.8,125.4,87.3,165.5c49.6,40.1,113.5,58.2,180.1,51c10.7-1.2,18.4-10.7,17.2-21.4
			s-10.7-18.4-21.4-17.2c-56.2,6.1-109.9-9-151.4-42.6c-41.4-33.6-67.4-83-73.1-139.2c-0.5-5.4-3.2-10-7.1-13.1
			c-3.8-3.1-8.9-4.8-14.2-4.2C94.1,793.7,86.4,803.2,87.4,813.9L87.4,813.9z"/>
	</g>
</g>
</svg>
